HIERARCHY
ROOT Hips
{
  OFFSET 265.287 66.7526 -254.649
  CHANNELS 6 Xposition Yposition Zposition Zrotation Xrotation Yrotation
  JOINT LeftUpLeg
  {
    OFFSET 8.64259 1.95398 -2.38835
    CHANNELS 3 Zrotation Xrotation Yrotation
    JOINT LeftLeg
    {
      OFFSET 43.7702 0 0
      CHANNELS 3 Zrotation Xrotation Yrotation
      JOINT LeftFoot
      {
        OFFSET 40.6238 0 0
        CHANNELS 3 Zrotation Xrotation Yrotation
        JOINT LeftToeBase
        {
          OFFSET 12.7242 0 0
          CHANNELS 3 Zrotation Xrotation Yrotation
          End Site
          {
            OFFSET 0 0 0
          }
        }
      }
    }
  }
  JOINT RightUpLeg
  {
    OFFSET -8.2249 1.95398 -2.59336
    CHANNELS 3 Zrotation Xrotation Yrotation
    JOINT RightLeg
    {
      OFFSET 43.5653 0 0
      CHANNELS 3 Zrotation Xrotation Yrotation
      JOINT RightFoot
      {
        OFFSET 40.6238 0 0
        CHANNELS 3 Zrotation Xrotation Yrotation
        JOINT RightToeBase
        {
          OFFSET 12.7242 0 0
          CHANNELS 3 Zrotation Xrotation Yrotation
          End Site
          {
            OFFSET 0 0 0
          }
        }
      }
    }
  }
  JOINT Spine
  {
    OFFSET 0.165834 0.87714 6.61349
    CHANNELS 3 Zrotation Xrotation Yrotation
    JOINT Spine1
    {
      OFFSET 7.38963 1.71661e-005 0
      CHANNELS 3 Zrotation Xrotation Yrotation
      JOINT Spine2
      {
        OFFSET 11.9445 1.14441e-005 0
        CHANNELS 3 Zrotation Xrotation Yrotation
        JOINT Spine3
        {
          OFFSET 14.7254 4.19617e-005 0
          CHANNELS 3 Zrotation Xrotation Yrotation
          JOINT Spine4
          {
            OFFSET 10.9679 0 0
            CHANNELS 3 Zrotation Xrotation Yrotation
            JOINT RightShoulder
            {
              OFFSET 2.46616 -1.6653 3.69651
              CHANNELS 3 Zrotation Xrotation Yrotation
              JOINT RightArm
              {
                OFFSET 13.0012 0 0
                CHANNELS 3 Zrotation Xrotation Yrotation
                JOINT RightForeArm
                {
                  OFFSET 28.7848 1.52588e-005 0
                  CHANNELS 3 Zrotation Xrotation Yrotation
                  JOINT RightHand
                  {
                    OFFSET 26.5688 1.52588e-005 0
                    CHANNELS 3 Zrotation Xrotation Yrotation
                    End Site
                    {
                      OFFSET 0 0 0
                    }
                  }
                }
              }
            }
            JOINT LeftShoulder
            {
              OFFSET 2.38034 -1.29275 -3.7523
              CHANNELS 3 Zrotation Xrotation Yrotation
              JOINT LeftArm
              {
                OFFSET 16.3182 6.10351e-005 0
                CHANNELS 3 Zrotation Xrotation Yrotation
                JOINT LeftForeArm
                {
                  OFFSET 27.0901 0 0
                  CHANNELS 3 Zrotation Xrotation Yrotation
                  JOINT LeftHand
                  {
                    OFFSET 24.5451 1.52588e-005 0
                    CHANNELS 3 Zrotation Xrotation Yrotation
                    End Site
                    {
                      OFFSET 0 0 0
                    }
                  }
                }
              }
            }
            JOINT Neck
            {
              OFFSET 5.0226 -0.0266342 0
              CHANNELS 3 Zrotation Xrotation Yrotation
              JOINT Head
              {
                OFFSET 6.69364 2.86102e-005 0
                CHANNELS 3 Zrotation Xrotation Yrotation
                End Site
                {
                  OFFSET 0 0 0
                }
              }
            }
          }
        }
      }
    }
  }
}
MOTION
Frames:	6
Frame Time:	0.0416667
238.938 99.4975 -223.341 -90.4953 -58.545 -90.4847 -175.739 -0.477364 88.373 -8.41472 19.7277 3.21411 58.8542 2.02894 14.2635 37.9941 -2.77341 -2.89172 175.986 4.21748 90.1682 -18.2648 -8.69387 -0.0759709 63.1174 1.00189 7.98105 33.4773 -0.523834 -2.15723 -0.50301 7.41603 -90.0142 12.0426 -1.00669 0.0817879 0.37206 -1.00211 0.126009 -22.1661 -0.984729 -0.22458 -2.15348 -0.984709 -0.22458 101.128 -53.0893 -83.7247 12.8414 -27.7336 -24.7708 22.38 9.38764 0.0107081 -29.2701 1.30013 -10.2854 -82.1036 -50.3985 90.4334 -29.7833 11.756 -17.6438 11.6757 30.9553 -17.1519 3.69749 0.204916 1.19795 4.50292 0.97928 -24.9707 -10.1778 4.06701 23.9763 
238.688 99.4806 -223.27 -90.3177 -58.3988 -90.697 -175.493 -0.735633 88.2436 -7.94139 19.8544 2.83437 59.3531 2.42904 15.2633 36.6256 -2.2358 -4.8903 175.739 4.22719 89.809 -18.4337 -7.40614 -0.0245032 64.4559 0.572619 9.46295 31.3947 -0.20294 -1.90771 -0.470733 7.44717 -89.9834 11.9804 -0.927992 0.133865 0.309797 -0.921213 0.17458 -22.228 -0.925321 -0.151248 -2.21533 -0.925342 -0.151261 100.703 -53.3781 -84.3552 13.575 -26.4591 -23.6636 20.6721 6.7702 0.0106388 -27.3496 0.886504 -8.94521 -82.4408 -50.1374 89.9029 -29.7711 12.1517 -18.2273 11.0819 29.9972 -16.8063 4.10535 0.245912 1.57206 5.61949 0.930147 -25.1972 -10.8906 4.11514 24.5888 
238.543 99.59 -223.181 -90.5437 -58.7037 -90.9934 -175.529 -0.960722 88.2659 -7.78819 19.9062 2.86915 59.2436 2.27421 14.4599 37.0949 -2.41965 -4.28727 175.968 4.29941 89.8801 -18.6996 -6.7469 -0.313799 62.8685 1.85862 9.69062 32.9016 -0.559777 -0.632514 -0.501187 7.46348 -89.9862 11.9479 -0.989888 0.134442 0.277307 -0.983021 0.177878 -22.2608 -0.984532 -0.169299 -2.24817 -0.98453 -0.169308 100.554 -53.1736 -84.5837 14.6236 -26.0039 -22.0717 19.176 6.02726 0.0612147 -25.5399 0.356623 -6.84985 -82.1805 -50.1637 90.2992 -29.9395 12.225 -18.4552 11.3782 30.0392 -17.221 4.17184 0.24216 1.44443 7.04102 1.24888 -24.7667 -12.142 4.36067 24.883 
238.474 99.6028 -223.068 -90.6575 -58.9394 -90.9199 -175.464 -1.14269 88.4024 -7.79467 20.3183 2.9545 59.2126 2.29561 14.833 36.7373 -2.29843 -4.22781 176.377 4.10933 90.0674 -18.7125 -1.67944 -0.743467 63.2846 2.78423 14.8676 30.6796 -0.329942 0.56414 -0.513959 7.45959 -90.0285 11.9555 -1.03529 0.0551934 0.284918 -1.03185 0.100699 -22.2534 -1.00403 -0.258546 -2.24077 -1.004 -0.258538 100.584 -52.9285 -84.546 15.4191 -25.6462 -20.427 17.6195 4.98677 -0.485124 -23.4386 0.15852 -6.00883 -82.0802 -50.4192 90.4704 -29.9984 12.0016 -18.4403 11.8896 30.5943 -17.725 3.5599 0.211787 1.45542 8.18123 1.73607 -23.7066 -13.169 4.67392 24.3629 
238.422 99.5716 -223.058 -90.8642 -58.7883 -91.1163 -175.317 -1.29169 88.4624 -7.77261 20.1969 2.83721 59.5064 2.49492 15.1259 36.7105 -2.27334 -4.66493 176.064 3.8496 89.9547 -18.5432 -1.65124 -0.442007 63.9948 2.31927 14.6331 29.7909 -0.232527 0.810106 -0.484121 7.44692 -90.0449 11.9805 -0.983856 0.0171306 0.309958 -0.982164 0.0604168 -22.228 -0.94351 -0.279369 -2.21536 -0.943531 -0.279388 100.597 -52.6821 -84.534 16.2723 -25.6153 -18.6793 16.5511 4.59643 -2.98988 -24.4365 -0.167495 -4.42605 -82.2794 -50.7707 90.1977 -29.7761 12.0136 -18.4096 11.6934 30.6411 -17.4749 3.63675 0.198755 1.13694 8.29612 2.42156 -23.0347 -13.352 5.1905 24.3047 
238.429 99.5545 -223.092 -90.6444 -58.6743 -91.163 -175.463 -1.1889 88.2387 -7.6818 19.7095 2.80108 59.4561 2.37226 14.4514 37.0472 -2.41407 -4.06539 176.034 4.12533 89.7858 -18.7886 -2.08011 -0.497803 64.0614 2.20993 14.0879 30.2374 -0.297455 0.843668 -0.468551 7.42826 -90.0362 12.0179 -0.948601 0.0311956 0.347253 -0.94631 0.0729055 -22.1905 -0.914098 -0.255368 -2.1779 -0.914109 -0.255374 100.895 -52.765 -84.0824 16.402 -25.9173 -17.4143 16.0669 4.58256 -5.78548 -27.9954 -0.662727 -2.47843 -82.2167 -51.1027 90.3174 -29.3006 12.5173 -18.2046 10.7789 28.9274 -17.0581 3.49499 0.118017 -0.312332 8.80459 3.02852 -22.1798 -13.5675 5.67518 24.0401 
